<?xml version="1.0" encoding="UTF-8"?>
<svg id="_Слой_1" data-name=" Слой 1" xmlns="http://www.w3.org/2000/svg" viewBox="0 0 825.14 825.14">
  <defs>
    <style>
      .cls-1 {
        fill: #fe5f1e;
      }
    </style>
  </defs>
  <path class="cls-1" d="M642,0H183.15C82,0,0,69.89,0,156.1V669.04c0,86.21,82,156.1,183.15,156.1h458.85c101.15,0,183.15-69.89,183.15-156.1V156.1C825.14,69.89,743.15,0,642,0Zm47.69,421.6c0,15.93-12.92,28.85-28.85,28.85h-210.4v210.4c0,15.93-12.92,28.85-28.85,28.85h-18.05c-15.93,0-28.85-12.92-28.85-28.85v-210.4H164.3c-15.93,0-28.85-12.92-28.85-28.85v-18.05c0-15.93,12.92-28.85,28.85-28.85h210.4V164.3c0-15.93,12.92-28.85,28.85-28.85h18.05c15.93,0,28.85,12.92,28.85,28.85v210.4h210.4c15.93,0,28.85,12.92,28.85,28.85v18.05Z"/>
</svg>