<?xml version="1.0" encoding="UTF-8"?>
<svg id="_Слой_1" data-name=" Слой 1" xmlns="http://www.w3.org/2000/svg" viewBox="0 0 150 150">
  <defs>
    <style>
      .cls-1 {
        fill: #fcc486;
      }

      .cls-2 {
        fill: #fd8369;
      }

      .cls-3 {
        fill: #fed892;
      }

      .cls-4 {
        fill: #fe5f1e;
      }

      .cls-5 {
        fill: #fed385;
      }

      .cls-6 {
        fill: #de8e68;
      }

      .cls-7 {
        fill: #d37c59;
      }

      .cls-8 {
        fill: #56cad8;
      }

      .cls-9 {
        fill: #74d5de;
      }

      .cls-10 {
        fill: none;
        stroke: #dfdfdf;
        stroke-linecap: round;
        stroke-linejoin: round;
        stroke-width: 5px;
      }
    </style>
  </defs>
  <path class="cls-4" d="M104.7,21.68c15.25,3.77,27.8,20.31,27.61,36.62-.19,16.27-13.12,32.31-23.94,47.74-10.79,15.44-19.41,30.28-30.32,31.06-10.92,.77-24.12-12.52-35.04-21.34-10.95-8.82-19.6-13.16-27.06-20.91-7.45-7.75-13.67-18.91-12.22-28.9,1.46-9.99,10.6-18.81,20.16-23.62,9.59-4.84,19.57-5.68,33.56-10.59,13.99-4.91,31.98-13.85,47.25-10.05h0Z"/>
  <path class="cls-10" d="M96.98,97.14l-19.94-40.6c-.61-.37-3.05-1.98-3.05-1.98"/>
  <path class="cls-10" d="M75.61,59.76c-.24-.81-.95-2.49-.95-2.49-.44-.03-3.48-1.64-3.48-1.64"/>
  <path class="cls-10" d="M70.31,55.78l9.45-3.98"/>
  <path d="M2.43,117.79l-2.43,2.31,5.83,7.88,1.8-1.65-2.78-7.01-2.43-1.54h0Z"/>
  <path d="M49.51,110.6l-2.01,3.81,4.98,8,2.1-.56-1.38-10.44-3.7-.81h.01Z"/>
  <path class="cls-7" d="M72.24,56.54c1.64,0,2.97-1.02,2.97-2.28s-1.33-2.28-2.97-2.28-2.97,1.02-2.97,2.28,1.33,2.28,2.97,2.28Z"/>
  <path class="cls-8" d="M32.64,56.67c-1.33,1.97-30.67,61.36-30.67,61.36l3.32,2.09,38.71-43.19-11.36-20.25h0Z"/>
  <path class="cls-7" d="M57.91,42.26c.76,.67,3,3.29,3.73,3.76,.73,.48,9.11,5.86,10.68,6.34s-1.77,1.89-1.77,1.89c0,0-10.91-2.49-11.72-3.05-.81-.55-5.59-4.52-5.59-5.59s4.67-3.36,4.67-3.36h0Z"/>
  <path class="cls-1" d="M51.52,37.15c2.43-2.72,7.19,3.74,7.09,4.69-.1,.95-3.47,4.93-5.6,4.93-.64,0-3.2-7.7-1.49-9.62Z"/>
  <path class="cls-9" d="M32.27,57.27c-.57,.79-3.05,7.08-3.05,9.24,0,14.75,21.32,18.57,24.38,18.57-.44,2.06-5.13,25.44-4.91,25.95,.22,.51,4.11,1.56,4.91,1.43,3.05-1.71,12.9-25.56,12.16-28.95-1.04-4.75-17.35-18.65-19.71-20.03-2.36-1.38-13.78-6.21-13.78-6.21Z"/>
  <path class="cls-5" d="M46.35,31.05c16.41,0,3.7,31.81,.81,33.53-1.91,1.14-13.73-3.19-15-7.52-.43-1.48,5.12-26.01,14.18-26.01h0Z"/>
  <path class="cls-6" d="M69.74,57.62c1.64,0,2.97-1.02,2.97-2.28s-1.33-2.28-2.97-2.28-2.97,1.02-2.97,2.28,1.33,2.28,2.97,2.28Z"/>
  <path class="cls-6" d="M41.11,45.74c.04,1.6,.56,8.97,1.21,9.19,7.82,2.69,21.36,1.5,23.69,1.34,2.34-.16,3.84-1.86,3.72-2.26-.12-.4-7.47-3.49-20.23-3.86-.24-1.49,.33-5.98-.25-6.38s-8.13,1.97-8.13,1.97h-.01Z"/>
  <path class="cls-3" d="M43.29,32.41c6.79-1.43,8.01,11.64,7.36,12.6-.65,.96-9.3,2.33-10.43,1.48-1.13-.84-2.07-13,3.08-14.09h-.01Z"/>
  <path class="cls-7" d="M47.91,22.92c-.31,1.23-2.45,8.28-2.31,8.65,.13,.37,3.07,2.02,4.2,1.84,.04-.54,.52-3.41,1.5-5.14s-3.38-5.35-3.38-5.35h0Z"/>
  <path class="cls-6" d="M56.6,22.96c.37-3.75-1.29-6.99-3.71-7.24s-4.67,2.58-5.04,6.33c-.37,3.75,1.29,6.99,3.71,7.24s4.67-2.58,5.04-6.33Z"/>
  <path class="cls-2" d="M47.43,22.92c-.5-.28-1.45-1.95-1.45-3.5,0-2.42,2.34-3.8,3.92-4.52,1.2-.55,2.21-3.12,4.94-3.12,2.17,0,2.32,2.26,3.32,2.34,2.59,.22,4.04,.32,4.04,2.26,0,1.43-1.77,5.31-5.39,5.31,0-.72-.23-2.51-.62-3.37-2.17,.11-3.94,2.99-6.96,2.98-.65-.01-1.8,1.61-1.8,1.61h0Z"/>
  <path class="cls-6" d="M48.57,24.13c.74,0,1.34-.75,1.34-1.68s-.6-1.68-1.34-1.68-1.34,.75-1.34,1.68,.6,1.68,1.34,1.68Z"/>
  <path class="cls-10" d="M144.94,112.46h-62.3v-13.94c3.41-.31,51.84-5.03,51.84-5.03v-30.3l-58.88-3.43,7.04,38.77"/>
  <path class="cls-10" d="M87.65,120.16c1.6,0,2.89-1.33,2.89-2.98s-1.29-2.98-2.89-2.98-2.89,1.33-2.89,2.98,1.29,2.98,2.89,2.98Z"/>
  <path class="cls-10" d="M144.11,120.16c1.6,0,2.89-1.33,2.89-2.98s-1.29-2.98-2.89-2.98-2.89,1.33-2.89,2.98,1.29,2.98,2.89,2.98Z"/>
  <path class="cls-10" d="M77.91,72.42h56.58"/>
  <path class="cls-10" d="M79.47,81.04h55.02"/>
  <path class="cls-10" d="M65.52,57.79l4.78-2.01"/>
  <path class="cls-10" d="M84.26,81.04c-.62-1.81-7.19-21.2-7.19-21.2"/>
</svg>