<?xml version="1.0" encoding="UTF-8"?>
<svg id="_Слой_1" data-name="Слой 1" xmlns="http://www.w3.org/2000/svg" viewBox="0 0 855.94 857.72">
  <defs>
    <style>
      .cls-1 {
        fill: #fff;
      }
    </style>
  </defs>
  <path class="cls-1" d="M427.97,6.24C194.51,6.24,5.35,195.41,5.35,428.86s189.16,422.62,422.62,422.62,422.62-189.16,422.62-422.62S661.42,6.24,427.97,6.24Zm107.08,575.61l-107.08-107.08-107.08,107.08c-12.6,12.6-33.32,12.6-45.92,0-6.3-6.3-9.55-14.63-9.55-22.96s3.25-16.66,9.55-22.96l107.08-107.08-107.08-107.08c-6.3-6.3-9.55-14.63-9.55-22.96s3.25-16.66,9.55-22.96c12.6-12.6,33.32-12.6,45.92,0l107.08,107.08,107.08-107.08c12.6-12.6,33.32-12.6,45.92,0s12.6,33.32,0,45.92l-107.08,107.08,107.08,107.08c12.6,12.6,12.6,33.32,0,45.92-12.6,12.8-33.32,12.8-45.92,0h0Z"/>
</svg>