<?xml version="1.0" encoding="UTF-8"?>
<svg id="_Слой_1" data-name="Слой 1" xmlns="http://www.w3.org/2000/svg" viewBox="0 0 64 64">
  <defs>
    <style>
      .cls-1 {
        fill: #fe5f1e;
      }
    </style>
  </defs>
  <path class="cls-1" d="M28,6c-2.21,0-4,1.79-4,4v2h-.4l-13.6,2v3H54v-3l-13.6-2h-.4v-2c0-2.21-1.79-4-4-4h-8Zm0,4h8v2h-8v-2ZM12,19l2.7,33.32c.17,2.08,1.9,3.68,3.99,3.68h26.62c2.08,0,3.82-1.6,3.99-3.68l2.62-32.32-39.92-1Zm8,7c1.1,0,2,.9,2,2v23h-3l-1-23c0-1.1,.9-2,2-2Zm12,0c1.66,0,3,1.34,3,3v22h-6V29c0-1.66,1.34-3,3-3Zm12,0c1.1,0,2,.9,2,2l-1,23h-3V28c0-1.1,.9-2,2-2Z"/>
</svg>